<svg width="102" height="29" viewBox="0 0 102 29" fill="none" xmlns="http://www.w3.org/2000/svg">
<path d="M14.742 2.748V6.31H9.906V21H5.46V6.31H0.624V2.748H14.742ZM21.4193 8.91C21.9393 8.11267 22.5893 7.48867 23.3693 7.038C24.1493 6.57 25.016 6.336 25.9693 6.336V11.042H24.7473C23.638 11.042 22.806 11.2847 22.2513 11.77C21.6967 12.238 21.4193 13.07 21.4193 14.266V21H16.9733V6.492H21.4193V8.91ZM27.2104 13.72C27.2104 12.2293 27.4878 10.9207 28.0424 9.794C28.6144 8.66733 29.3858 7.80067 30.3564 7.194C31.3271 6.58733 32.4104 6.284 33.6064 6.284C34.6291 6.284 35.5218 6.492 36.2844 6.908C37.0644 7.324 37.6624 7.87 38.0784 8.546V6.492H42.5244V21H38.0784V18.946C37.6451 19.622 37.0384 20.168 36.2584 20.584C35.4958 21 34.6031 21.208 33.5804 21.208C32.4018 21.208 31.3271 20.9047 30.3564 20.298C29.3858 19.674 28.6144 18.7987 28.0424 17.672C27.4878 16.528 27.2104 15.2107 27.2104 13.72ZM38.0784 13.746C38.0784 12.6367 37.7664 11.7613 37.1424 11.12C36.5358 10.4787 35.7904 10.158 34.9064 10.158C34.0224 10.158 33.2684 10.4787 32.6444 11.12C32.0378 11.744 31.7344 12.6107 31.7344 13.72C31.7344 14.8293 32.0378 15.7133 32.6444 16.372C33.2684 17.0133 34.0224 17.334 34.9064 17.334C35.7904 17.334 36.5358 17.0133 37.1424 16.372C37.7664 15.7307 38.0784 14.8553 38.0784 13.746ZM52.2669 16.84L55.4129 6.492H60.1449L54.9969 21H49.5109L44.3629 6.492H49.1209L52.2669 16.84ZM64.2523 4.984C63.4723 4.984 62.831 4.75867 62.3283 4.308C61.843 3.84 61.6003 3.268 61.6003 2.592C61.6003 1.89867 61.843 1.32667 62.3283 0.875999C62.831 0.407999 63.4723 0.173998 64.2523 0.173998C65.015 0.173998 65.639 0.407999 66.1243 0.875999C66.627 1.32667 66.8783 1.89867 66.8783 2.592C66.8783 3.268 66.627 3.84 66.1243 4.308C65.639 4.75867 65.015 4.984 64.2523 4.984ZM66.4623 6.492V21H62.0163V6.492H66.4623ZM75.1963 6.284C76.2189 6.284 77.1116 6.492 77.8743 6.908C78.6543 7.324 79.2523 7.87 79.6683 8.546V6.492H84.1143V20.974C84.1143 22.3087 83.8456 23.5133 83.3083 24.588C82.7883 25.68 81.9823 26.5467 80.8903 27.188C79.8156 27.8293 78.4723 28.15 76.8603 28.15C74.7109 28.15 72.9689 27.6387 71.6343 26.616C70.2996 25.6107 69.5369 24.2413 69.3463 22.508H73.7403C73.8789 23.0627 74.2083 23.496 74.7283 23.808C75.2483 24.1373 75.8896 24.302 76.6523 24.302C77.5709 24.302 78.2989 24.0333 78.8363 23.496C79.3909 22.976 79.6683 22.1353 79.6683 20.974V18.92C79.2349 19.596 78.6369 20.1507 77.8743 20.584C77.1116 21 76.2189 21.208 75.1963 21.208C74.0003 21.208 72.9169 20.9047 71.9463 20.298C70.9756 19.674 70.2043 18.7987 69.6323 17.672C69.0776 16.528 68.8003 15.2107 68.8003 13.72C68.8003 12.2293 69.0776 10.9207 69.6323 9.794C70.2043 8.66733 70.9756 7.80067 71.9463 7.194C72.9169 6.58733 74.0003 6.284 75.1963 6.284ZM79.6683 13.746C79.6683 12.6367 79.3563 11.7613 78.7323 11.12C78.1256 10.4787 77.3803 10.158 76.4963 10.158C75.6123 10.158 74.8583 10.4787 74.2343 11.12C73.6276 11.744 73.3243 12.6107 73.3243 13.72C73.3243 14.8293 73.6276 15.7133 74.2343 16.372C74.8583 17.0133 75.6123 17.334 76.4963 17.334C77.3803 17.334 78.1256 17.0133 78.7323 16.372C79.3563 15.7307 79.6683 14.8553 79.6683 13.746Z" fill="#212C4F"/>
<path d="M93.9348 21.208C92.5134 21.208 91.2308 20.9047 90.0868 20.298C88.9601 19.6913 88.0674 18.8247 87.4088 17.698C86.7674 16.5713 86.4468 15.254 86.4468 13.746C86.4468 12.2553 86.7761 10.9467 87.4347 9.82C88.0934 8.676 88.9948 7.80067 90.1388 7.194C91.2828 6.58733 92.5654 6.284 93.9868 6.284C95.4081 6.284 96.6908 6.58733 97.8348 7.194C98.9788 7.80067 99.8801 8.676 100.539 9.82C101.197 10.9467 101.527 12.2553 101.527 13.746C101.527 15.2367 101.189 16.554 100.513 17.698C99.8541 18.8247 98.9441 19.6913 97.7828 20.298C96.6388 20.9047 95.3561 21.208 93.9348 21.208ZM93.9348 17.36C94.7841 17.36 95.5034 17.048 96.0928 16.424C96.6994 15.8 97.0028 14.9073 97.0028 13.746C97.0028 12.5847 96.7081 11.692 96.1188 11.068C95.5468 10.444 94.8361 10.132 93.9868 10.132C93.1201 10.132 92.4008 10.444 91.8288 11.068C91.2568 11.6747 90.9708 12.5673 90.9708 13.746C90.9708 14.9073 91.2481 15.8 91.8028 16.424C92.3748 17.048 93.0854 17.36 93.9348 17.36Z" fill="#E1467C"/>
</svg>
